Coordinates
version=1
nRows=22
nColumns=24
inDegrees=yes

Units are S.I. units (second, meters, Newtons, ...)
Angles are in degrees.

endheader
time	pelvis_tilt	pelvis_list	pelvis_rotation	pelvis_tx	pelvis_ty	pelvis_tz	hip_flexion_r	hip_adduction_r	hip_rotation_r	knee_angle_r	ankle_angle_r	subtalar_angle_r	mtp_angle_r	hip_flexion_l	hip_adduction_l	hip_rotation_l	knee_angle_l	ankle_angle_l	subtalar_angle_l	mtp_angle_l	lumbar_extension	lumbar_bending	lumbar_rotation
      4.28500000	     12.56154749	      8.94586878	     -1.18403091	      2.24184852	      0.75945817	     -0.28610002	      3.33257671	     -9.34516830	      2.30063341	    -62.05506907	     21.14350621	     -6.04553203	      0.00000000	     -3.38413096	     13.45144903	      1.10256060	    -13.32136184	     19.12001852	     -0.37052193	      0.00000000	    -29.35962638	     -9.14888432	      1.33607544
      4.29000000	     12.50978985	      8.87833999	     -0.98556348	      2.24851090	      0.75997334	     -0.28638708	      4.36137707	     -9.23215311	      2.41487618	    -61.49892508	     22.15423280	     -5.17106092	      0.00000000	     -4.09041331	     13.38273913	      1.31303137	    -12.98363465	     19.43615969	     -0.20508672	      0.00000000	    -29.47423015	     -8.95742314	      0.93879736
      4.29500000	     12.47515723	      8.85853957	     -0.76536327	      2.25518748	      0.76040718	     -0.28668428	      5.33818517	     -9.19901058	      2.47273133	    -60.85464437	     23.06192633	     -4.36517839	      0.00000000	     -4.81944898	     13.35224495	      1.50957710	    -12.63929332	     19.74280220	      0.03766959	      0.00000000	    -29.61423735	     -8.80916278	      0.49786428
      4.30000000	     12.45926851	      8.84761686	     -0.51769368	      2.26185220	      0.76076595	     -0.28697963	      6.25683751	     -9.18803868	      2.48880366	    -60.11705920	     23.85368939	     -3.68278025	      0.00000000	     -5.56008549	     13.31839215	      1.67449994	    -12.31411873	     20.07673702	      0.31489367	      0.00000000	    -29.78738548	     -8.66117173	      0.02648551
      4.30500000	     12.47040244	      8.85868626	     -0.24921516	      2.26852187	      0.76106734	     -0.28728304	      7.10426245	     -9.22431939	      2.45581329	    -59.27916846	     24.52484471	     -3.10706353	      0.00000000	     -6.32522611	     13.29467216	      1.82084246	    -12.00461297	     20.42845848	      0.65244257	      0.00000000	    -29.99366456	     -8.52442302	     -0.48690879
      4.31000000	     12.50386924	      8.87940213	      0.04192899	      2.27518927	      0.76130598	     -0.28759324	      7.88479835	     -9.28607098	      2.38323590	    -58.34641837	     25.08673298	     -2.69041386	      0.00000000	     -7.11029548	     13.26750139	      1.94071752	    -11.70782184	     20.80408314	      1.02735759	      0.00000000	    -30.23106068	     -8.38371695	     -1.02585150
      4.31500000	     12.55630480	      8.91294250	      0.35258559	      2.28186201	      0.76148825	     -0.28789639	      8.59878948	     -9.37755187	      2.26866881	    -57.31334406	     25.54737951	     -2.43546052	      0.00000000	     -7.91308131	     13.23886515	      2.04460135	    -11.42410610	     21.19657956	      1.43685321	      0.00000000	    -30.49079322	     -8.24835801	     -1.58760338
      4.32000000	     12.63047021	      8.95829841	      0.67984162	      2.28853775	      0.76162029	     -0.28819360	      9.24385360	     -9.49640311	      2.11742668	    -56.18491594	     25.89452842	     -2.33237999	      0.00000000	     -8.74043658	     13.20666316	      2.13339816	    -11.14284873	     21.60206543	      1.87889891	      0.00000000	    -30.77686907	     -8.11509955	     -2.16569114
      4.32500000	     12.71627636	      9.01667477	      1.01535459	      2.29522094	      0.76169522	     -0.28848373	      9.83166826	     -9.64467558	      1.93167748	    -54.96014105	     26.14575058	     -2.38487725	      0.00000000	     -9.57996564	     13.17579449	      2.21219201	    -10.86775123	     22.01292917	      2.32938988	      0.00000000	    -31.07239316	     -7.98926875	     -2.75360840
      4.33000000	     12.84601649	      9.05335995	      1.34381521	      2.30193019	      0.76176132	     -0.28874913	     10.31865978	     -9.77675459	      1.72582753	    -53.62284552	     26.27636478	     -2.55059699	      0.00000000	    -10.48064323	     13.10593521	      2.26646728	    -10.56601304	     22.45015350	      2.83778144	      0.00000000	    -31.40512314	     -7.83952735	     -3.29702783
      4.33500000	     12.94202839	      9.13733482	      1.69604794	      2.30863316	      0.76172285	     -0.28903097	     10.80238805	     -9.98210758	      1.47028335	    -52.20988480	     26.35463108	     -2.86470268	      0.00000000	    -11.33822360	     13.07580421	      2.34541741	    -10.28822708	     22.86252995	      3.29498551	      0.00000000	    -31.70262778	     -7.72664595	     -3.88422747
      4.34000000	     13.01631124	      9.27452002	      2.05565357	      2.31532083	      0.76159438	     -0.28930943	     11.27474548	    -10.26536931	      1.17661184	    -50.72638442	     26.36553353	     -3.29156173	      0.00000000	    -12.16209428	     13.09352392	      2.42070024	    -10.03685731	     23.24095012	      3.69197606	      0.00000000	    -31.97946883	     -7.66534946	     -4.50694170
      4.34500000	     13.12048830	      9.37765316	      2.42567454	      2.32204252	      0.76146139	     -0.28958335	     11.64763985	    -10.52363893	      0.82433110	    -49.12227874	     26.27892799	     -3.79680496	      0.00000000	    -13.03541053	     13.05651970	      2.52330312	     -9.76015569	     23.64591496	      4.12901255	      0.00000000	    -32.27353093	     -7.55791221	     -5.09115564
      4.35000000	     13.29544392	      9.44896937	      2.73128979	      2.32883024	      0.76134922	     -0.28980254	     11.89170030	    -10.74449085	      0.47506209	    -47.39828644	     26.13065958	     -4.37195637	      0.00000000	    -14.00771142	     12.97920161	      2.53204136	     -9.42751202	     24.04413215	      4.63533351	      0.00000000	    -32.61606318	     -7.43611404	     -5.56316980
      4.35500000	     13.36305578	      9.58009023	      3.10449082	      2.33557892	      0.76108284	     -0.29006677	     12.20912164	    -11.06197303	      0.03361831	    -45.62288759	     25.91076330	     -4.96494676	      0.00000000	    -14.84556921	     12.95281944	      2.66074972	     -9.15495262	     24.42031264	      5.02984332	      0.00000000	    -32.85164935	     -7.35547196	     -6.13115353
      4.36000000	     13.43557306	      9.73213147	      3.46632747	      2.34234308	      0.76076863	     -0.29032543	     12.47667003	    -11.42142894	     -0.47769023	    -43.77057584	     25.63083285	     -5.57584108	      0.00000000	    -15.69215353	     12.94061794	      2.79722782	     -8.88331917	     24.79517769	      5.41473753	      0.00000000	    -33.08374597	     -7.30039279	     -6.65848069
      4.36500000	     13.51331922	      9.88461551	      3.81623733	      2.34914537	      0.76042488	     -0.29055777	     12.68032116	    -11.78549102	     -1.03710446	    -41.82439386	     25.31577703	     -6.16698701	      0.00000000	    -16.55089146	     12.91796712	      2.91118760	     -8.60280940	     25.13552388	      5.79963333	      0.00000000	    -33.30600949	     -7.24923095	     -7.16779841
      4.37000000	     13.54580773	     10.09297502	      4.17237933	      2.35592989	      0.75998208	     -0.29077587	     12.89853164	    -12.22634425	     -1.66196334	    -39.83856803	     24.97352719	     -6.68631042	      0.00000000	    -17.34460698	     12.94651823	      3.03277763	     -8.36796191	     25.46374645	      6.15216597	      0.00000000	    -33.48354555	     -7.25996132	     -7.72230153
      4.37500000	     13.61835752	     10.23447267	      4.51837714	      2.36281680	      0.75956155	     -0.29100782	     12.98962212	    -12.59888957	     -2.38754153	    -37.73250761	     24.60407666	     -7.11649717	      0.00000000	    -18.20618257	     12.89203872	      3.17019161	     -8.08763487	     25.79519276	      6.53558985	      0.00000000	    -33.66721952	     -7.19536411	     -8.15139535
      4.38000000	     13.62294162	     10.45020347	      4.87563987	      2.36968038	      0.75902800	     -0.29118917	     13.12493896	    -13.05813689	     -3.17481699	    -35.61436518	     24.22770570	     -7.40525468	      0.00000000	    -18.96699293	     12.90541809	      3.29301165	     -7.87854718	     26.09810040	      6.89377176	      0.00000000	    -33.78694370	     -7.22051339	     -8.68250182
      4.38500000	     13.63591175	     10.63272370	      5.23428773	      2.37661789	      0.75847624	     -0.29138075	     13.18237763	    -13.48423510	     -4.06923120	    -33.42602630	     23.86366063	     -7.50947766	      0.00000000	    -19.74019748	     12.87204879	      3.43494859	     -7.67139517	     26.41257074	      7.26054410	      0.00000000	    -33.89097277	     -7.20611687	     -9.14238688
      4.39000000	     13.71966825	     10.79585496	      5.55604167	      2.38364012	      0.75796264	     -0.29151417	     13.10287126	    -13.87630812	     -5.05855588	    -31.18150013	     23.56698227	     -7.30399196	      0.00000000	    -20.60046015	     12.80197208	      3.55432132	     -7.44244101	     26.68688924	      7.66269845	      0.00000000	    -34.05052958	     -7.18622154	     -9.53274276
